<svg width="24" height="24" viewBox="0 0 24 24" fill="none" xmlns="http://www.w3.org/2000/svg">
<style>
svg { overflow: visible; }
@keyframes kf_pulse_1_transform_0 {
  0% {
    transform: translate(12px, 12px) scaleX(1) scaleY(1) translate(-12px, -12px);
  }
  20% {
    transform: translate(12px, 12px) scaleX(1.5) scaleY(1.5) translate(-12px, -12px);
  }
  100% {
    transform: translate(12px, 12px) scaleX(1.5) scaleY(1.5) translate(-12px, -12px);
  }
}
@keyframes kf_pulse_1_stroke_0 {
  0% {
    animation-timing-function: cubic-bezier(0.5, 0, 0.5, 1);
    stroke: #4CCA51;
  }
  10% {
    animation-timing-function: cubic-bezier(0.5, 0, 0.5, 1);
    stroke: #4CCA51;
  }
  10.05% {
    animation-timing-function: cubic-bezier(0.5, 0, 0.5, 1);
    stroke: rgba(76, 202, 81, 1);
  }
  20% {
    stroke: rgba(76, 202, 81, 0);
  }
  100% {
    stroke: rgba(76, 202, 81, 0);
  }
}
#pulse_1 {
  transform-origin: 0 0;
  animation:
    kf_pulse_1_transform_0 2s linear infinite,
    kf_pulse_1_stroke_0 2s linear infinite;
}
@keyframes kf_pulse_2_transform_0 {
  0% {
    transform: translate(12px, 12px) scaleX(1) scaleY(1) translate(-12px, -12px);
  }
  10% {
    transform: translate(12px, 12px) scaleX(1) scaleY(1) translate(-12px, -12px);
  }
  30% {
    transform: translate(12px, 12px) scaleX(1.5) scaleY(1.5) translate(-12px, -12px);
  }
  100% {
    transform: translate(12px, 12px) scaleX(1.5) scaleY(1.5) translate(-12px, -12px);
  }
}
@keyframes kf_pulse_2_stroke_0 {
  0% {
    animation-timing-function: cubic-bezier(0.5, 0, 0.5, 1);
    stroke: #24A8DB;
  }
  10.05% {
    animation-timing-function: cubic-bezier(0.5, 0, 0.5, 1);
    stroke: #4CCA51;
  }
  20% {
    animation-timing-function: cubic-bezier(0.5, 0, 0.5, 1);
    stroke: #4CCA51;
  }
  30% {
    stroke: rgba(76, 202, 81, 0);
  }
  100% {
    stroke: rgba(76, 202, 81, 0);
  }
}
#pulse_2 {
  transform-origin: 0 0;
  animation:
    kf_pulse_2_transform_0 2s linear infinite,
    kf_pulse_2_stroke_0 2s linear infinite;
}
@keyframes kf_pulse_3_transform_0 {
  0% {
    transform: translate(12px, 12px) scaleX(1) scaleY(1) translate(-12px, -12px);
  }
  20% {
    transform: translate(12px, 12px) scaleX(1) scaleY(1) translate(-12px, -12px);
  }
  40% {
    transform: translate(12px, 12px) scaleX(1.5) scaleY(1.5) translate(-12px, -12px);
  }
  100% {
    transform: translate(12px, 12px) scaleX(1.5) scaleY(1.5) translate(-12px, -12px);
  }
}
@keyframes kf_pulse_3_stroke_0 {
  0% {
    animation-timing-function: cubic-bezier(0.5, 0, 0.5, 1);
    stroke: #24A8DB;
  }
  10.05% {
    animation-timing-function: cubic-bezier(0.5, 0, 0.5, 1);
    stroke: #4CCA51;
  }
  30% {
    animation-timing-function: cubic-bezier(0.5, 0, 0.5, 1);
    stroke: #4CCA51;
  }
  40% {
    stroke: rgba(76, 202, 81, 0);
  }
  100% {
    stroke: rgba(76, 202, 81, 0);
  }
}
#pulse_3 {
  transform-origin: 0 0;
  animation:
    kf_pulse_3_transform_0 2s linear infinite,
    kf_pulse_3_stroke_0 2s linear infinite;
}
</style>
<g id="uptodate_yes">
<circle id="pulse_1" cx="12" cy="12" r="11.5" stroke="#4CCA51"/>
<circle id="pulse_2" cx="12" cy="12" r="11.5" stroke="#24A8DB"/>
<circle id="pulse_3" cx="12" cy="12" r="11.5" stroke="#24A8DB"/>
<circle id="bg" cx="12" cy="12" r="12" fill="#4CCA51"/>
<path id="i" transform="translate(9 4)" d="M3.648 3.744C2.976 3.744 2.472 3.592 2.136 3.288C1.8 2.968 1.632 2.528 1.632 1.968C1.632 1.408 1.848 0.944 2.28 0.576C2.728 0.192 3.28 0 3.936 0C4.528 0 5.008 0.144 5.376 0.432C5.744 0.72 5.928 1.128 5.928 1.656C5.928 2.296 5.72 2.808 5.304 3.192C4.888 3.56 4.336 3.744 3.648 3.744ZM1.344 16.632C0.832 16.632 0.48 16.528 0.288 16.32C0.096 16.112 0 15.784 0 15.336C0 15.208 0.016 14.984 0.048 14.664C0.304 11.736 0.728 9.072 1.32 6.672C1.448 6.176 1.656 5.832 1.944 5.64C2.248 5.432 2.728 5.328 3.384 5.328C4.072 5.328 4.416 5.608 4.416 6.168C4.416 6.248 4.4 6.4 4.368 6.624C3.648 10.048 3.216 12.92 3.072 15.24C3.04 15.752 2.888 16.112 2.616 16.32C2.344 16.528 1.92 16.632 1.344 16.632Z" fill="white"/>
</g>
</svg>
